<?xml version="1.0" encoding="UTF-8"?>
<svg id="_レイヤー_1" data-name="レイヤー 1" xmlns="http://www.w3.org/2000/svg" viewBox="0 0 144 144">
  <defs>
    <style>
      .cls-1 {
        fill: #fff;
        fill-rule: evenodd;
      }

      .cls-1, .cls-2 {
        stroke-width: 0px;
      }

      .cls-2 {
        fill: #2c3e50;
      }
    </style>
  </defs>
  <g>
    <path class="cls-2" d="M40.97,143.5C18.66,143.5.5,125.34.5,103.03v-63.03C.5,18.22,18.22.5,40,.5h63.03c22.32,0,40.47,18.16,40.47,40.47v62.05c0,22.32-18.16,40.47-40.47,40.47h-62.05Z"/>
    <path class="cls-2" d="M103.03,1c22.04,0,39.97,17.93,39.97,39.97v62.05c0,22.04-17.93,39.97-39.97,39.97h-62.05c-22.04,0-39.97-17.93-39.97-39.97v-63.03C1,18.5,18.5,1,40,1h63.03M103.03,0h-63.03C17.91,0,0,17.91,0,40v63.03c0,22.63,18.34,40.97,40.97,40.97h62.05c22.63,0,40.97-18.34,40.97-40.97v-62.05C144,18.34,125.66,0,103.03,0h0Z"/>
  </g>
  <path class="cls-1" d="M118.7,52.47l-44.76,44.76h-.01c-.07.07-.13.13-.21.19-.13.11-.29.21-.44.3-.09.03-.17.08-.26.11-.09.03-.17.07-.26.09-.5.15-1.05.15-1.55,0-.17-.06-.32-.12-.48-.2-.09-.03-.17-.09-.25-.15-.16-.09-.3-.21-.44-.35L25.3,52.47c-1.07-1.06-1.07-2.81,0-3.87l1.81-1.82c1.07-1.07,2.81-1.07,3.88,0l41.01,41.01,41-41.01c1.06-1.07,2.81-1.07,3.87,0l1.82,1.82c1.07,1.06,1.07,2.81,0,3.87Z"/>
</svg>